<svg width="24" height="24" viewBox="0 0 24 24" fill="none" xmlns="http://www.w3.org/2000/svg">
<path fill-rule="evenodd" clip-rule="evenodd" d="M16.25 13H4V11H16.25V13Z" fill="#020617"/>
<path fill-rule="evenodd" clip-rule="evenodd" d="M16.25 8.18921V15.8106L20.0607 11.9999L16.25 8.18921Z" fill="#020617"/>
<mask id="mask0_459_1745" style="mask-type:luminance" maskUnits="userSpaceOnUse" x="2" y="6" width="20" height="13">
<path d="M22 6.18921H2V18.1892H22V6.18921Z" fill="white"/>
<path fill-rule="evenodd" clip-rule="evenodd" d="M16.25 13H4V11H16.25V13Z" fill="black"/>
<path fill-rule="evenodd" clip-rule="evenodd" d="M16.25 8.18921V15.8106L20.0607 11.9999L16.25 8.18921Z" fill="black"/>
</mask>
<g mask="url(#mask0_459_1745)">
<path d="M16.25 12.9999V14.4999C17.0784 14.4999 17.75 13.8283 17.75 12.9999H16.25ZM4 12.9999H2.5C2.5 13.3977 2.65804 13.7792 2.93934 14.0606C3.22064 14.3419 3.60218 14.4999 4 14.4999V12.9999ZM4 10.9999V9.49991C3.17157 9.49991 2.5 10.1715 2.5 10.9999H4ZM16.25 10.9999H17.75C17.75 10.6021 17.592 10.2205 17.3107 9.93925C17.0294 9.65795 16.6478 9.49991 16.25 9.49991V10.9999ZM16.25 8.18925L17.3107 7.12859C16.8817 6.69959 16.2365 6.57126 15.676 6.80343C15.1155 7.0356 14.75 7.58256 14.75 8.18925H16.25ZM16.25 15.8106H14.75C14.75 16.4172 15.1155 16.9642 15.676 17.1964C16.2365 17.4285 16.8817 17.3002 17.3107 16.8712L16.25 15.8106ZM20.0607 11.9999L21.1213 13.0606C21.7071 12.4748 21.7071 11.525 21.1213 10.9392L20.0607 11.9999ZM2.5 10.9999V12.9999H5.5V10.9999H2.5ZM17.75 12.9999V10.9999H14.75V12.9999H17.75ZM4 14.4999H16.25V11.4999H4V14.4999ZM16.25 9.49991H4V12.4999H16.25V9.49991ZM17.75 15.8106V8.18925H14.75V15.8106H17.75ZM19 10.9392L15.1893 14.7499L17.3107 16.8712L21.1213 13.0606L19 10.9392ZM15.1893 9.24991L19 13.0606L21.1213 10.9392L17.3107 7.12859L15.1893 9.24991Z" fill="white"/>
</g>
</svg>
