<svg width="24" height="24" viewBox="0 0 24 24" fill="none" xmlns="http://www.w3.org/2000/svg">
<path fill-rule="evenodd" clip-rule="evenodd" d="M7.75 11H20V13H7.75V11Z" fill="#020617"/>
<path fill-rule="evenodd" clip-rule="evenodd" d="M7.75011 15.8106V8.18921L3.93945 11.9999L7.75011 15.8106Z" fill="#020617"/>
<mask id="mask0_459_1731" style="mask-type:luminance" maskUnits="userSpaceOnUse" x="1" y="6" width="21" height="13">
<path d="M21.9395 6.18921H1.93945V18.1892H21.9395V6.18921Z" fill="white"/>
<path fill-rule="evenodd" clip-rule="evenodd" d="M7.75 11H20V13H7.75V11Z" fill="black"/>
<path fill-rule="evenodd" clip-rule="evenodd" d="M7.75011 15.8106V8.18921L3.93945 11.9999L7.75011 15.8106Z" fill="black"/>
</mask>
<g mask="url(#mask0_459_1731)">
<path d="M7.75011 10.9999V9.49991C7.35229 9.49991 6.97076 9.65795 6.68945 9.93925C6.40815 10.2205 6.25011 10.6021 6.25011 10.9999H7.75011ZM20.0001 10.9999H21.5001C21.5001 10.1715 20.8285 9.49991 20.0001 9.49991V10.9999ZM20.0001 12.9999V14.4999C20.8285 14.4999 21.5001 13.8283 21.5001 12.9999H20.0001ZM7.75011 12.9999H6.25011C6.25011 13.8283 6.92169 14.4999 7.75011 14.4999V12.9999ZM7.75011 15.8106L6.68945 16.8712C7.11845 17.3002 7.76363 17.4285 8.32414 17.1964C8.88465 16.9642 9.25011 16.4172 9.25011 15.8106H7.75011ZM7.75011 8.18925H9.25011C9.25011 7.58256 8.88465 7.0356 8.32414 6.80343C7.76363 6.57126 7.11845 6.69959 6.68945 7.12859L7.75011 8.18925ZM3.93945 11.9999L2.87879 10.9392C2.59749 11.2205 2.43945 11.6021 2.43945 11.9999C2.43945 12.3977 2.59749 12.7792 2.87879 13.0606L3.93945 11.9999ZM21.5001 12.9999V10.9999H18.5001V12.9999H21.5001ZM6.25011 10.9999V12.9999H9.25011V10.9999H6.25011ZM20.0001 9.49991H7.75011V12.4999H20.0001V9.49991ZM7.75011 14.4999H20.0001V11.4999H7.75011V14.4999ZM6.25011 8.18925V15.8106H9.25011V8.18925H6.25011ZM5.00011 13.0606L8.81077 9.24991L6.68945 7.12859L2.87879 10.9392L5.00011 13.0606ZM8.81077 14.7499L5.00011 10.9392L2.87879 13.0606L6.68945 16.8712L8.81077 14.7499Z" fill="white"/>
</g>
</svg>
